<svg width="27" height="25" viewBox="0 0 27 25" fill="none" xmlns="http://www.w3.org/2000/svg">
<path d="M21.4703 22.6495C21.5152 22.6382 21.5364 22.6172 21.5541 22.5963C21.5618 22.5871 21.5696 22.578 21.5775 22.569C21.6139 22.5274 21.6172 22.4391 21.6163 22.3944C21.6032 22.2887 21.5126 22.216 21.4356 22.216C21.4319 22.216 21.428 22.2161 21.4257 22.2162C21.3478 22.2216 21.2602 22.3251 21.2668 22.4463C21.2761 22.5628 21.3621 22.6495 21.4336 22.6495H21.4703ZM7.85179 22.6431C7.9507 22.6431 8.0311 22.549 8.0311 22.4334C8.0311 22.3182 7.9507 22.2245 7.85179 22.2245C7.75294 22.2245 7.67248 22.3182 7.67248 22.4334C7.67248 22.549 7.75294 22.6431 7.85179 22.6431ZM21.5934 24.6439C21.5458 24.6439 21.4821 24.6439 21.4336 24.6439C20.2992 24.6439 19.3569 23.7347 19.2769 22.5814C19.1971 21.3797 20.0919 20.3081 21.2901 20.2264C21.3388 20.2231 21.3874 20.2215 21.4356 20.2215C22.5712 20.2215 23.5299 21.1199 23.6074 22.2727C23.6388 22.8741 23.4629 23.4422 23.0796 23.881C22.6964 24.3361 22.1687 24.5955 21.5934 24.6439ZM7.85179 24.6376C6.65091 24.6376 5.67804 23.6513 5.67804 22.4334C5.67804 21.2163 6.65091 20.2301 7.85179 20.2301C9.05261 20.2301 10.0255 21.2163 10.0255 22.4334C10.0255 23.6513 9.05261 24.6376 7.85179 24.6376ZM20.7946 17.7906H8.76277C8.33105 17.7906 7.94784 17.4981 7.8356 17.0763L3.92072 2.68653H1.17258C0.645728 2.68653 0.214069 2.24866 0.214069 1.71195C0.214069 1.17608 0.645728 0.737244 1.17258 0.737244H4.64052C5.07133 0.737244 5.45454 1.02976 5.56671 1.45254L9.48165 15.8413H20.1556L23.7025 7.55906H11.8788C11.3511 7.55906 10.9194 7.12022 10.9194 6.58448C10.9194 6.04862 11.3511 5.60978 11.8788 5.60978H25.1726C25.4922 5.60978 25.7964 5.77217 25.9714 6.04862C26.1473 6.3241 26.1796 6.66519 26.0513 6.9739L21.6733 17.2054C21.5135 17.5627 21.1778 17.7906 20.7946 17.7906Z" fill="white"/>
</svg>
