<svg width="405" height="94" viewBox="0 0 405 94" fill="none" xmlns="http://www.w3.org/2000/svg">
<path d="M12 0.900879H0V92.9009H12V0.900879Z" fill="#F16D7F"/>
<path d="M56.296 19.984H46.12V49H38.896V19.984H28.72V14.176H56.296V19.984ZM90.4488 14.176V49H83.2008V34H67.8648V49H60.6168V14.176H67.8648V28.96H83.2008V14.176H90.4488ZM104.99 19.816V28.768H116.606V34.216H104.99V43.36H119.918V49H97.7418V14.176H119.918V19.816H104.99ZM150.063 43.48C151.215 43.48 152.159 43.344 152.895 43.072C153.647 42.784 154.247 42.408 154.695 41.944C155.143 41.48 155.455 40.952 155.631 40.36C155.807 39.752 155.895 39.128 155.895 38.488C155.895 37.784 155.791 37.152 155.583 36.592C155.375 36.032 155.039 35.56 154.575 35.176C154.111 34.776 153.503 34.472 152.751 34.264C152.015 34.056 151.103 33.952 150.015 33.952H143.895V43.48H150.063ZM143.895 19.648V29.056H148.623C149.631 29.056 150.527 28.976 151.311 28.816C152.095 28.64 152.751 28.368 153.279 28C153.807 27.632 154.207 27.152 154.479 26.56C154.767 25.952 154.911 25.224 154.911 24.376C154.911 23.512 154.791 22.776 154.551 22.168C154.327 21.56 153.975 21.072 153.495 20.704C153.015 20.336 152.407 20.072 151.671 19.912C150.935 19.736 150.063 19.648 149.055 19.648H143.895ZM149.055 14.176C151.391 14.176 153.383 14.4 155.031 14.848C156.695 15.28 158.047 15.904 159.087 16.72C160.143 17.52 160.911 18.496 161.391 19.648C161.871 20.8 162.111 22.088 162.111 23.512C162.111 24.312 161.991 25.08 161.751 25.816C161.527 26.552 161.167 27.248 160.671 27.904C160.191 28.544 159.567 29.128 158.799 29.656C158.031 30.184 157.119 30.632 156.063 31C158.431 31.56 160.183 32.472 161.319 33.736C162.455 35 163.023 36.64 163.023 38.656C163.023 40.128 162.735 41.496 162.159 42.76C161.599 44.024 160.775 45.12 159.687 46.048C158.599 46.976 157.255 47.704 155.655 48.232C154.071 48.744 152.247 49 150.183 49H136.695V14.176H149.055ZM179.419 30.664C180.587 30.664 181.595 30.52 182.443 30.232C183.291 29.928 183.987 29.52 184.531 29.008C185.075 28.48 185.475 27.864 185.731 27.16C185.987 26.456 186.115 25.688 186.115 24.856C186.115 23.208 185.563 21.928 184.459 21.016C183.371 20.104 181.707 19.648 179.467 19.648H175.723V30.664H179.419ZM196.291 49H189.787C188.571 49 187.691 48.536 187.147 47.608L180.523 36.928C180.251 36.512 179.947 36.208 179.611 36.016C179.291 35.824 178.811 35.728 178.171 35.728H175.723V49H168.523V14.176H179.467C181.899 14.176 183.979 14.432 185.707 14.944C187.435 15.44 188.851 16.136 189.955 17.032C191.059 17.928 191.867 19 192.379 20.248C192.891 21.48 193.147 22.84 193.147 24.328C193.147 25.48 192.979 26.576 192.643 27.616C192.323 28.64 191.851 29.576 191.227 30.424C190.603 31.272 189.835 32.024 188.923 32.68C188.011 33.336 186.971 33.864 185.803 34.264C186.267 34.52 186.699 34.832 187.099 35.2C187.499 35.552 187.859 35.976 188.179 36.472L196.291 49ZM218.079 35.776L214.311 25.12C214.087 24.56 213.847 23.904 213.591 23.152C213.351 22.4 213.119 21.584 212.895 20.704C212.671 21.6 212.431 22.432 212.175 23.2C211.935 23.952 211.703 24.608 211.479 25.168L207.735 35.776H218.079ZM230.175 49H224.583C223.959 49 223.447 48.856 223.047 48.568C222.663 48.264 222.375 47.88 222.183 47.416L219.831 40.768H205.959L203.607 47.416C203.447 47.816 203.167 48.184 202.767 48.52C202.367 48.84 201.863 49 201.255 49H195.615L209.223 14.176H216.591L230.175 49ZM263.23 14.176V49H259.51C258.95 49 258.478 48.912 258.094 48.736C257.71 48.544 257.334 48.224 256.966 47.776L239.614 25.696C239.662 26.256 239.694 26.808 239.71 27.352C239.742 27.896 239.758 28.4 239.758 28.864V49H233.398V14.176H237.19C237.494 14.176 237.75 14.192 237.958 14.224C238.182 14.24 238.382 14.296 238.558 14.392C238.734 14.472 238.902 14.584 239.062 14.728C239.222 14.872 239.398 15.064 239.59 15.304L257.062 37.48C256.998 36.872 256.95 36.288 256.918 35.728C256.886 35.152 256.87 34.608 256.87 34.096V14.176H263.23ZM301.747 31.576C301.747 34.12 301.315 36.464 300.451 38.608C299.603 40.736 298.395 42.568 296.827 44.104C295.275 45.64 293.403 46.84 291.211 47.704C289.019 48.568 286.587 49 283.915 49H270.523V14.176H283.915C286.587 14.176 289.019 14.608 291.211 15.472C293.403 16.336 295.275 17.544 296.827 19.096C298.395 20.632 299.603 22.464 300.451 24.592C301.315 26.72 301.747 29.048 301.747 31.576ZM294.355 31.576C294.355 29.752 294.115 28.112 293.635 26.656C293.155 25.2 292.467 23.968 291.571 22.96C290.675 21.952 289.579 21.176 288.283 20.632C287.003 20.088 285.547 19.816 283.915 19.816H277.771V43.36H283.915C285.547 43.36 287.003 43.096 288.283 42.568C289.579 42.024 290.675 41.248 291.571 40.24C292.467 39.216 293.155 37.976 293.635 36.52C294.115 35.064 294.355 33.416 294.355 31.576ZM52.64 75.432C52.64 77.128 52.3573 78.7013 51.792 80.152C51.2373 81.592 50.448 82.84 49.424 83.896C48.4 84.952 47.168 85.7787 45.728 86.376C44.288 86.9627 42.688 87.256 40.928 87.256C39.1787 87.256 37.584 86.9627 36.144 86.376C34.704 85.7787 33.4667 84.952 32.432 83.896C31.408 82.84 30.6133 81.592 30.048 80.152C29.4827 78.7013 29.2 77.128 29.2 75.432C29.2 73.736 29.4827 72.168 30.048 70.728C30.6133 69.2773 31.408 68.024 32.432 66.968C33.4667 65.912 34.704 65.0907 36.144 64.504C37.584 63.9067 39.1787 63.608 40.928 63.608C42.1013 63.608 43.2053 63.7467 44.24 64.024C45.2747 64.2907 46.224 64.6747 47.088 65.176C47.952 65.6667 48.7253 66.2693 49.408 66.984C50.1013 67.688 50.688 68.4773 51.168 69.352C51.648 70.2267 52.0107 71.176 52.256 72.2C52.512 73.224 52.64 74.3013 52.64 75.432ZM48.24 75.432C48.24 74.1627 48.0693 73.0267 47.728 72.024C47.3867 71.0107 46.9013 70.152 46.272 69.448C45.6427 68.744 44.8747 68.2053 43.968 67.832C43.072 67.4587 42.0587 67.272 40.928 67.272C39.7973 67.272 38.7787 67.4587 37.872 67.832C36.976 68.2053 36.208 68.744 35.568 69.448C34.9387 70.152 34.4533 71.0107 34.112 72.024C33.7707 73.0267 33.6 74.1627 33.6 75.432C33.6 76.7013 33.7707 77.8427 34.112 78.856C34.4533 79.8587 34.9387 80.712 35.568 81.416C36.208 82.1093 36.976 82.6427 37.872 83.016C38.7787 83.3893 39.7973 83.576 40.928 83.576C42.0587 83.576 43.072 83.3893 43.968 83.016C44.8747 82.6427 45.6427 82.1093 46.272 81.416C46.9013 80.712 47.3867 79.8587 47.728 78.856C48.0693 77.8427 48.24 76.7013 48.24 75.432ZM60.7398 67.288V74.136H69.4118V77.576H60.7398V87H56.4198V63.864H71.0118V67.288H60.7398ZM95.0968 83.448V87H81.5448V63.864H85.8488V83.448H95.0968ZM106.857 83.528C107.689 83.528 108.43 83.3893 109.081 83.112C109.742 82.8347 110.297 82.4453 110.745 81.944C111.193 81.4427 111.534 80.8347 111.769 80.12C112.014 79.4053 112.137 78.6053 112.137 77.72V63.864H116.441V77.72C116.441 79.096 116.217 80.3707 115.769 81.544C115.331 82.7067 114.697 83.7147 113.865 84.568C113.043 85.4107 112.041 86.072 110.857 86.552C109.673 87.0213 108.339 87.256 106.857 87.256C105.363 87.256 104.025 87.0213 102.841 86.552C101.657 86.072 100.649 85.4107 99.8168 84.568C98.9954 83.7147 98.3608 82.7067 97.9128 81.544C97.4754 80.3707 97.2568 79.096 97.2568 77.72V63.864H101.561V77.704C101.561 78.5893 101.678 79.3893 101.913 80.104C102.158 80.8187 102.505 81.432 102.953 81.944C103.411 82.4453 103.966 82.8347 104.617 83.112C105.278 83.3893 106.025 83.528 106.857 83.528ZM140.095 87H135.807C135.508 87 135.268 86.9253 135.087 86.776C134.916 86.6267 134.777 86.456 134.671 86.264L129.311 77.384C129.225 77.6507 129.124 77.88 129.007 78.072L123.871 86.264C123.743 86.4453 123.593 86.616 123.423 86.776C123.263 86.9253 123.049 87 122.783 87H118.767L126.447 75.096L119.071 63.864H123.359C123.657 63.864 123.871 63.9067 123.999 63.992C124.137 64.0667 124.265 64.1947 124.383 64.376L129.647 72.856C129.753 72.5893 129.881 72.3227 130.031 72.056L134.863 64.456C134.98 64.2533 135.108 64.104 135.247 64.008C135.385 63.912 135.561 63.864 135.775 63.864H139.887L132.447 74.92L140.095 87ZM147.084 67.288V73.704H155.18V77.016H147.084V83.56H157.356V87H142.764V63.864H157.356V67.288H147.084ZM168.162 74.872C168.972 74.872 169.676 74.7707 170.274 74.568C170.882 74.3653 171.378 74.088 171.762 73.736C172.156 73.3733 172.45 72.9467 172.642 72.456C172.834 71.9653 172.93 71.4267 172.93 70.84C172.93 69.6667 172.54 68.7653 171.762 68.136C170.994 67.5067 169.815 67.192 168.226 67.192H165.474V74.872H168.162ZM179.234 87H175.346C174.61 87 174.076 86.712 173.746 86.136L168.882 78.728C168.7 78.4507 168.498 78.2533 168.274 78.136C168.06 78.0187 167.74 77.96 167.314 77.96H165.474V87H161.17V63.864H168.226C169.794 63.864 171.138 64.0293 172.258 64.36C173.388 64.68 174.311 65.1333 175.026 65.72C175.751 66.3067 176.284 67.0107 176.626 67.832C176.967 68.6427 177.138 69.5387 177.138 70.52C177.138 71.2987 177.02 72.0347 176.786 72.728C176.562 73.4213 176.231 74.0507 175.794 74.616C175.367 75.1813 174.834 75.6773 174.194 76.104C173.564 76.5307 172.844 76.8667 172.034 77.112C172.311 77.272 172.567 77.464 172.802 77.688C173.036 77.9013 173.25 78.1573 173.442 78.456L179.234 87ZM186.052 87H181.732V63.864H186.052V87ZM213.296 75.432C213.296 77.128 213.014 78.7013 212.448 80.152C211.894 81.592 211.104 82.84 210.08 83.896C209.056 84.952 207.824 85.7787 206.384 86.376C204.944 86.9627 203.344 87.256 201.584 87.256C199.835 87.256 198.24 86.9627 196.8 86.376C195.36 85.7787 194.123 84.952 193.088 83.896C192.064 82.84 191.27 81.592 190.704 80.152C190.139 78.7013 189.856 77.128 189.856 75.432C189.856 73.736 190.139 72.168 190.704 70.728C191.27 69.2773 192.064 68.024 193.088 66.968C194.123 65.912 195.36 65.0907 196.8 64.504C198.24 63.9067 199.835 63.608 201.584 63.608C202.758 63.608 203.862 63.7467 204.896 64.024C205.931 64.2907 206.88 64.6747 207.744 65.176C208.608 65.6667 209.382 66.2693 210.064 66.984C210.758 67.688 211.344 68.4773 211.824 69.352C212.304 70.2267 212.667 71.176 212.912 72.2C213.168 73.224 213.296 74.3013 213.296 75.432ZM208.896 75.432C208.896 74.1627 208.726 73.0267 208.384 72.024C208.043 71.0107 207.558 70.152 206.928 69.448C206.299 68.744 205.531 68.2053 204.624 67.832C203.728 67.4587 202.715 67.272 201.584 67.272C200.454 67.272 199.435 67.4587 198.528 67.832C197.632 68.2053 196.864 68.744 196.224 69.448C195.595 70.152 195.11 71.0107 194.768 72.024C194.427 73.0267 194.256 74.1627 194.256 75.432C194.256 76.7013 194.427 77.8427 194.768 78.856C195.11 79.8587 195.595 80.712 196.224 81.416C196.864 82.1093 197.632 82.6427 198.528 83.016C199.435 83.3893 200.454 83.576 201.584 83.576C202.715 83.576 203.728 83.3893 204.624 83.016C205.531 82.6427 206.299 82.1093 206.928 81.416C207.558 80.712 208.043 79.8587 208.384 78.856C208.726 77.8427 208.896 76.7013 208.896 75.432ZM226.388 83.528C227.22 83.528 227.961 83.3893 228.612 83.112C229.273 82.8347 229.828 82.4453 230.276 81.944C230.724 81.4427 231.065 80.8347 231.3 80.12C231.545 79.4053 231.668 78.6053 231.668 77.72V63.864H235.972V77.72C235.972 79.096 235.748 80.3707 235.3 81.544C234.863 82.7067 234.228 83.7147 233.396 84.568C232.575 85.4107 231.572 86.072 230.388 86.552C229.204 87.0213 227.871 87.256 226.388 87.256C224.895 87.256 223.556 87.0213 222.372 86.552C221.188 86.072 220.18 85.4107 219.348 84.568C218.527 83.7147 217.892 82.7067 217.444 81.544C217.007 80.3707 216.788 79.096 216.788 77.72V63.864H221.092V77.704C221.092 78.5893 221.209 79.3893 221.444 80.104C221.689 80.8187 222.036 81.432 222.484 81.944C222.943 82.4453 223.497 82.8347 224.148 83.112C224.809 83.3893 225.556 83.528 226.388 83.528ZM253.146 68.072C253.018 68.296 252.879 68.4613 252.73 68.568C252.591 68.664 252.415 68.712 252.202 68.712C251.978 68.712 251.733 68.632 251.466 68.472C251.21 68.3013 250.901 68.1147 250.538 67.912C250.175 67.7093 249.749 67.528 249.258 67.368C248.778 67.1973 248.207 67.112 247.546 67.112C246.949 67.112 246.426 67.1867 245.978 67.336C245.53 67.4747 245.151 67.672 244.842 67.928C244.543 68.184 244.319 68.4933 244.17 68.856C244.021 69.208 243.946 69.5973 243.946 70.024C243.946 70.568 244.095 71.0213 244.394 71.384C244.703 71.7467 245.109 72.056 245.61 72.312C246.111 72.568 246.682 72.7973 247.322 73C247.962 73.2027 248.618 73.4213 249.29 73.656C249.962 73.88 250.618 74.1467 251.258 74.456C251.898 74.7547 252.469 75.1387 252.97 75.608C253.471 76.0667 253.871 76.632 254.17 77.304C254.479 77.976 254.634 78.792 254.634 79.752C254.634 80.7973 254.453 81.7787 254.09 82.696C253.738 83.6027 253.215 84.3973 252.522 85.08C251.839 85.752 251.002 86.2853 250.01 86.68C249.018 87.064 247.882 87.256 246.602 87.256C245.866 87.256 245.141 87.1813 244.426 87.032C243.711 86.8933 243.023 86.6907 242.362 86.424C241.711 86.1573 241.098 85.8373 240.522 85.464C239.946 85.0907 239.434 84.6747 238.986 84.216L240.25 82.152C240.357 82.0027 240.495 81.88 240.666 81.784C240.837 81.6773 241.018 81.624 241.21 81.624C241.477 81.624 241.765 81.736 242.074 81.96C242.383 82.1733 242.751 82.4133 243.178 82.68C243.605 82.9467 244.101 83.192 244.666 83.416C245.242 83.6293 245.93 83.736 246.73 83.736C247.957 83.736 248.906 83.448 249.578 82.872C250.25 82.2853 250.586 81.448 250.586 80.36C250.586 79.752 250.431 79.256 250.122 78.872C249.823 78.488 249.423 78.168 248.922 77.912C248.421 77.6453 247.85 77.4213 247.21 77.24C246.57 77.0587 245.919 76.8613 245.258 76.648C244.597 76.4347 243.946 76.1787 243.306 75.88C242.666 75.5813 242.095 75.192 241.594 74.712C241.093 74.232 240.687 73.6347 240.378 72.92C240.079 72.1947 239.93 71.304 239.93 70.248C239.93 69.4053 240.095 68.584 240.426 67.784C240.767 66.984 241.258 66.2747 241.898 65.656C242.538 65.0373 243.327 64.5413 244.266 64.168C245.205 63.7947 246.282 63.608 247.498 63.608C248.863 63.608 250.122 63.8213 251.274 64.248C252.426 64.6747 253.407 65.272 254.218 66.04L253.146 68.072Z" fill="#222222"/>
<path d="M270.49 67.288V74.136H279.162V77.576H270.49V87H266.17V63.864H280.762V67.288H270.49ZM294.613 78.264L291.797 70.568C291.658 70.2267 291.514 69.8213 291.365 69.352C291.215 68.8827 291.066 68.376 290.917 67.832C290.778 68.376 290.634 68.888 290.485 69.368C290.335 69.8373 290.191 70.248 290.053 70.6L287.253 78.264H294.613ZM302.213 87H298.885C298.511 87 298.207 86.9093 297.973 86.728C297.738 86.536 297.562 86.3013 297.444 86.024L295.717 81.304H286.133L284.405 86.024C284.319 86.2693 284.154 86.4933 283.909 86.696C283.663 86.8987 283.359 87 282.997 87H279.636L288.741 63.864H293.125L302.213 87ZM316.927 68.072C316.799 68.296 316.661 68.4613 316.511 68.568C316.373 68.664 316.197 68.712 315.983 68.712C315.759 68.712 315.514 68.632 315.247 68.472C314.991 68.3013 314.682 68.1147 314.319 67.912C313.957 67.7093 313.53 67.528 313.039 67.368C312.559 67.1973 311.989 67.112 311.327 67.112C310.73 67.112 310.207 67.1867 309.759 67.336C309.311 67.4747 308.933 67.672 308.623 67.928C308.325 68.184 308.101 68.4933 307.951 68.856C307.802 69.208 307.727 69.5973 307.727 70.024C307.727 70.568 307.877 71.0213 308.175 71.384C308.485 71.7467 308.89 72.056 309.391 72.312C309.893 72.568 310.463 72.7973 311.103 73C311.743 73.2027 312.399 73.4213 313.071 73.656C313.743 73.88 314.399 74.1467 315.039 74.456C315.679 74.7547 316.25 75.1387 316.751 75.608C317.253 76.0667 317.653 76.632 317.951 77.304C318.261 77.976 318.415 78.792 318.415 79.752C318.415 80.7973 318.234 81.7787 317.871 82.696C317.519 83.6027 316.997 84.3973 316.303 85.08C315.621 85.752 314.783 86.2853 313.791 86.68C312.799 87.064 311.663 87.256 310.383 87.256C309.647 87.256 308.922 87.1813 308.207 87.032C307.493 86.8933 306.805 86.6907 306.143 86.424C305.493 86.1573 304.879 85.8373 304.303 85.464C303.727 85.0907 303.215 84.6747 302.767 84.216L304.031 82.152C304.138 82.0027 304.277 81.88 304.447 81.784C304.618 81.6773 304.799 81.624 304.991 81.624C305.258 81.624 305.546 81.736 305.855 81.96C306.165 82.1733 306.533 82.4133 306.959 82.68C307.386 82.9467 307.882 83.192 308.447 83.416C309.023 83.6293 309.711 83.736 310.511 83.736C311.738 83.736 312.687 83.448 313.359 82.872C314.031 82.2853 314.367 81.448 314.367 80.36C314.367 79.752 314.213 79.256 313.903 78.872C313.605 78.488 313.205 78.168 312.703 77.912C312.202 77.6453 311.631 77.4213 310.991 77.24C310.351 77.0587 309.701 76.8613 309.039 76.648C308.378 76.4347 307.727 76.1787 307.087 75.88C306.447 75.5813 305.877 75.192 305.375 74.712C304.874 74.232 304.469 73.6347 304.159 72.92C303.861 72.1947 303.711 71.304 303.711 70.248C303.711 69.4053 303.877 68.584 304.207 67.784C304.549 66.984 305.039 66.2747 305.679 65.656C306.319 65.0373 307.109 64.5413 308.047 64.168C308.986 63.7947 310.063 63.608 311.279 63.608C312.645 63.608 313.903 63.8213 315.055 64.248C316.207 64.6747 317.189 65.272 317.999 66.04L316.927 68.072ZM341.674 63.864V87H337.354V76.888H326.49V87H322.17V63.864H326.49V73.816H337.354V63.864H341.674ZM351.146 87H346.826V63.864H351.146V87ZM378.39 75.432C378.39 77.128 378.107 78.7013 377.542 80.152C376.987 81.592 376.198 82.84 375.174 83.896C374.15 84.952 372.918 85.7787 371.478 86.376C370.038 86.9627 368.438 87.256 366.678 87.256C364.929 87.256 363.334 86.9627 361.894 86.376C360.454 85.7787 359.217 84.952 358.182 83.896C357.158 82.84 356.363 81.592 355.798 80.152C355.233 78.7013 354.95 77.128 354.95 75.432C354.95 73.736 355.233 72.168 355.798 70.728C356.363 69.2773 357.158 68.024 358.182 66.968C359.217 65.912 360.454 65.0907 361.894 64.504C363.334 63.9067 364.929 63.608 366.678 63.608C367.851 63.608 368.955 63.7467 369.99 64.024C371.025 64.2907 371.974 64.6747 372.838 65.176C373.702 65.6667 374.475 66.2693 375.158 66.984C375.851 67.688 376.438 68.4773 376.918 69.352C377.398 70.2267 377.761 71.176 378.006 72.2C378.262 73.224 378.39 74.3013 378.39 75.432ZM373.99 75.432C373.99 74.1627 373.819 73.0267 373.478 72.024C373.137 71.0107 372.651 70.152 372.022 69.448C371.393 68.744 370.625 68.2053 369.718 67.832C368.822 67.4587 367.809 67.272 366.678 67.272C365.547 67.272 364.529 67.4587 363.622 67.832C362.726 68.2053 361.958 68.744 361.318 69.448C360.689 70.152 360.203 71.0107 359.862 72.024C359.521 73.0267 359.35 74.1627 359.35 75.432C359.35 76.7013 359.521 77.8427 359.862 78.856C360.203 79.8587 360.689 80.712 361.318 81.416C361.958 82.1093 362.726 82.6427 363.622 83.016C364.529 83.3893 365.547 83.576 366.678 83.576C367.809 83.576 368.822 83.3893 369.718 83.016C370.625 82.6427 371.393 82.1093 372.022 81.416C372.651 80.712 373.137 79.8587 373.478 78.856C373.819 77.8427 373.99 76.7013 373.99 75.432ZM401.674 63.864V87H399.466C399.124 87 398.836 86.9467 398.602 86.84C398.378 86.7227 398.159 86.5307 397.946 86.264L385.866 70.84C385.93 71.544 385.962 72.1947 385.962 72.792V87H382.17V63.864H384.426C384.607 63.864 384.762 63.8747 384.89 63.896C385.028 63.9067 385.146 63.9387 385.242 63.992C385.348 64.0347 385.45 64.104 385.546 64.2C385.642 64.2853 385.748 64.4027 385.866 64.552L397.994 80.04C397.962 79.6667 397.935 79.2987 397.914 78.936C397.892 78.5733 397.882 78.2373 397.882 77.928V63.864H401.674Z" fill="#F16D7F"/>
</svg>
