<svg width="16" height="15" viewBox="0 0 16 15" fill="none" xmlns="http://www.w3.org/2000/svg">
<path d="M8.13677 3.68162C6.02163 3.68162 4.31555 5.38494 4.31555 7.49666C4.31555 9.60838 6.02163 11.3117 8.13677 11.3117C10.2519 11.3117 11.958 9.60838 11.958 7.49666C11.958 5.38494 10.2519 3.68162 8.13677 3.68162ZM8.13677 9.97693C6.76991 9.97693 5.65248 8.86463 5.65248 7.49666C5.65248 6.12869 6.76658 5.01639 8.13677 5.01639C9.50695 5.01639 10.6211 6.12869 10.6211 7.49666C10.6211 8.86463 9.50363 9.97693 8.13677 9.97693V9.97693ZM13.0056 3.52557C13.0056 4.02029 12.6065 4.41541 12.1143 4.41541C11.6188 4.41541 11.223 4.01697 11.223 3.52557C11.223 3.03416 11.6221 2.63572 12.1143 2.63572C12.6065 2.63572 13.0056 3.03416 13.0056 3.52557ZM15.5364 4.42869C15.4799 3.2367 15.2072 2.18084 14.3325 1.31092C13.4612 0.440997 12.4036 0.168732 11.2097 0.108966C9.9792 0.0392395 6.29101 0.0392395 5.0605 0.108966C3.8699 0.165411 2.81233 0.437677 1.93768 1.3076C1.06302 2.17752 0.793639 3.23338 0.733776 4.42537C0.663937 5.65389 0.663937 9.33611 0.733776 10.5646C0.790313 11.7566 1.06302 12.8125 1.93768 13.6824C2.81233 14.5523 3.86658 14.8246 5.0605 14.8844C6.29101 14.9541 9.9792 14.9541 11.2097 14.8844C12.4036 14.8279 13.4612 14.5556 14.3325 13.6824C15.2039 12.8125 15.4766 11.7566 15.5364 10.5646C15.6063 9.33611 15.6063 5.65721 15.5364 4.42869V4.42869ZM13.9468 11.8828C13.6874 12.5336 13.1852 13.0349 12.53 13.2972C11.5489 13.6857 9.22094 13.5961 8.13677 13.5961C7.05259 13.5961 4.72128 13.6824 3.74353 13.2972C3.09169 13.0383 2.58951 12.5369 2.32678 11.8828C1.93768 10.9033 2.02747 8.57908 2.02747 7.49666C2.02747 6.41424 1.941 4.0867 2.32678 3.11053C2.58619 2.45975 3.08837 1.95838 3.74353 1.69608C4.72461 1.3076 7.05259 1.39725 8.13677 1.39725C9.22094 1.39725 11.5523 1.31092 12.53 1.69608C13.1818 1.95506 13.684 2.45643 13.9468 3.11053C14.3359 4.09002 14.2461 6.41424 14.2461 7.49666C14.2461 8.57908 14.3359 10.9066 13.9468 11.8828Z" fill="black"/>
</svg>
