<svg width="17" height="14" viewBox="0 0 17 14" fill="none" xmlns="http://www.w3.org/2000/svg">
<path d="M14.4181 3.74107C14.4281 3.88319 14.4281 4.02535 14.4281 4.16747C14.4281 8.50247 11.1509 13.4974 5.16096 13.4974C3.31558 13.4974 1.60132 12.9593 0.159302 12.0253C0.421495 12.0558 0.673569 12.0659 0.94585 12.0659C2.46851 12.0659 3.8702 11.5482 4.98953 10.6649C3.5576 10.6345 2.3576 9.69031 1.94415 8.39081C2.14585 8.42125 2.34751 8.44156 2.5593 8.44156C2.85172 8.44156 3.14418 8.40094 3.41643 8.32991C1.92401 8.02531 0.80465 6.70553 0.80465 5.11163V5.07103C1.23824 5.31469 1.74249 5.46697 2.2769 5.48725C1.39959 4.89841 0.824826 3.89335 0.824826 2.75628C0.824826 2.14716 0.98614 1.58878 1.26851 1.10147C2.87187 3.09131 5.28195 4.39078 7.98443 4.53294C7.93403 4.28928 7.90376 4.0355 7.90376 3.78169C7.90376 1.97457 9.35586 0.502502 11.1609 0.502502C12.0987 0.502502 12.9457 0.89844 13.5407 1.53803C14.2768 1.39591 14.9827 1.12178 15.6079 0.746159C15.3659 1.5076 14.8516 2.14719 14.176 2.55325C14.8315 2.48222 15.4668 2.29944 16.0516 2.04566C15.608 2.69538 15.0533 3.27403 14.4181 3.74107V3.74107Z" fill="black"/>
</svg>
